<?xml version="1.0" encoding="UTF-8"?><svg version="1.1" xmlns="http://www.w3.org/2000/svg" xmlns:xlink="http://www.w3.org/1999/xlink" viewBox="0 0 1500 1500" width="1500" height="1500" x="0px" y="0px">
              
              <!-- ITEM 0 -->
<g transform="translate(150.0 514.0) scale(2.87 2.8719723183391004) rotate(0.0 199.99999999999997 144.5)">
<g transform="translate(-0.0 -0.0)">

<path fill="#1D72D8" d="M244.408,221.156c5.258-2.459,10.23-2.331,14.956,0V14.322c-3.562-1.942-8.469-2.049-14.956,0  L244.408,221.156L244.408,221.156z"/>
<rect x="56.066" y="14.274" fill="#428DFC" width="188.981" height="206.975"/>
<rect x="208.496" y="16.756" fill="#81AEF2" width="16.368" height="35.985"/>
<polygon fill="#428DFC" points="373.018,289 259.183,221.248 259.183,14.274 373.762,70.36 "/>
<polygon fill="#FFFFFF" points="270.095,229.19 369.05,286.517 369.05,73.826 260.141,21.468 249.017,21.771 "/>
<rect x="70.202" y="21.719" fill="#D6D7D8" width="178.565" height="206.975"/>
<polygon fill="#EEEEEE" points="248.766,228.694 73.922,239.117 73.922,32.143 248.766,21.719 "/>
<polygon fill="#EEEEEE" points="254.719,229.19 353.673,286.517 353.673,74.332 249.017,21.67 "/>
<polygon fill="#D6D7D8" points="248.766,228.694 346.233,286.767 346.233,79.791 248.766,21.719 "/>
<linearGradient id="SVGID_1_-i0" gradientUnits="userSpaceOnUse" x1="2313.7161" y1="2014.0402" x2="2818.9124" y2="2014.0402" gradientTransform="matrix(0.1782 0 0 0.1782 -163.5382 -205.4038)">
	<stop offset="0" style="stop-color:#D6D7D8"/>
	<stop offset="1" style="stop-color:#EEEEEE"/>
</linearGradient>
<polygon fill="url(#SVGID_1_-i0)" points="248.766,228.694 338.792,285.278 338.792,78.302 248.766,21.719 "/>
<rect x="352.681" y="73.835" fill="#D6D7D8" width="16.368" height="212.435"/>
<g>
	<polygon fill="#D6D7D8" points="320.936,115.562 262.159,80.881 262.159,67.597 320.936,102.277  "/>
	<polygon fill="#D6D7D8" points="320.936,143.605 262.159,108.924 262.159,95.641 320.936,130.321  "/>
	<polygon fill="#D6D7D8" points="320.936,171.648 262.159,136.968 262.159,123.683 320.936,158.364  "/>
	<polygon fill="#D6D7D8" points="320.936,199.692 262.159,165.011 262.159,151.728 320.936,186.407  "/>
	<polygon fill="#D6D7D8" points="320.936,227.734 262.159,193.054 262.159,179.771 320.936,214.452  "/>
	<polygon fill="#D6D7D8" points="320.936,255.778 262.159,221.098 262.159,207.814 320.936,242.494  "/>
</g>
<g>
	<polygon fill="#F6F6F6" points="226.446,77.916 98.475,84.278 98.475,70.995 226.446,64.632  "/>
	<polygon fill="#F6F6F6" points="226.446,105.959 98.475,112.323 98.475,99.038 226.446,92.675  "/>
	<polygon fill="#F6F6F6" points="226.446,134.002 98.475,140.365 98.475,127.083 226.446,120.718  "/>
	<polygon fill="#F6F6F6" points="226.446,162.046 98.475,168.409 98.475,155.125 226.446,148.762  "/>
	<polygon fill="#F6F6F6" points="226.446,190.088 98.475,196.453 98.475,183.169 226.446,176.806  "/>
	<polygon fill="#F6F6F6" points="226.446,218.133 98.475,224.496 98.475,211.212 226.446,204.848  "/>
</g>
<polygon fill="#A1C3FC" points="116.416,73.632 111.125,68.078 116.675,62.784 121.966,68.337 "/>
<polygon fill="#A1C3FC" points="54.212,174.964 48.921,169.41 54.471,164.116 59.762,169.67 "/>
<polygon fill="#FFFFFF" points="81.838,200.725 76.547,195.171 82.098,189.877 87.389,195.431 "/>
<rect x="24.085" y="6.6" transform="matrix(-0.2057 0.9786 -0.9786 -0.2057 49.3768 -14.1742)" fill="#E94A47" width="12.711" height="12.703"/>
<polygon fill="#23286B" points="367.447,137.963 379.746,134.781 382.926,147.089 370.627,150.27 "/>
<g>
	<path fill="#23286B" d="M129.559,45.758c-0.212,0-0.404-0.143-0.457-0.358c-2.606-10.545-11.407-18.318-18.782-23.912   C95.349,10.134,72.47-2.496,48.488,1.805c-0.255,0.05-0.5-0.124-0.547-0.381c-0.046-0.256,0.124-0.501,0.381-0.547   c24.326-4.361,47.449,8.393,62.568,19.858c7.499,5.688,16.451,13.605,19.128,24.437c0.062,0.252-0.091,0.508-0.344,0.57   C129.634,45.753,129.597,45.758,129.559,45.758z"/>
</g>
<g>
	<path fill="#23286B" d="M0.471,84.589c-0.048,0-0.097-0.008-0.145-0.023c-0.248-0.08-0.383-0.346-0.302-0.593   c1.176-3.622,2.472-6.643,4.979-9.614c2.184-2.588,4.591-4.739,6.778-6.059c11.498-6.933,21.138-9.307,29.477-7.253   c0.252,0.062,0.407,0.316,0.345,0.57c-0.062,0.254-0.313,0.41-0.57,0.345c-8.082-1.987-17.492,0.348-28.766,7.146   c-2.101,1.268-4.426,3.348-6.546,5.86c-2.406,2.853-3.66,5.779-4.801,9.296C0.853,84.462,0.67,84.589,0.471,84.589z"/>
</g>
<g>
	<path fill="#23286B" d="M373.811,174.275c-18.338,0-32.658-3.911-50.592-13.288c-0.231-0.121-0.319-0.405-0.2-0.636   c0.121-0.231,0.406-0.32,0.636-0.2c21.504,11.244,37.772,14.561,62.172,12.685c8.055-0.62,12.837-2.558,13.248-4.067   c0.068-0.251,0.328-0.4,0.578-0.331c0.251,0.069,0.398,0.328,0.331,0.578c-0.611,2.244-6.272,4.157-14.085,4.758   C381.648,174.105,377.641,174.275,373.811,174.275z"/>
</g>
<g>
	<path fill="#A1C3FC" d="M218.9,120.062c0.449-4.53-1.788-8.548-4.156-12.801c-0.813-1.46-1.643-2.957-2.359-4.481v30.83   c0.672-1.245,1.434-2.465,2.189-3.67C216.528,126.815,218.549,123.585,218.9,120.062z"/>
	<path fill="#A1C3FC" d="M219.486,65.871c1.118-6.36-1.531-12.288-4.336-18.563c-0.966-2.162-1.949-4.385-2.767-6.619v40.445   c0.808-1.72,1.754-3.381,2.682-5.001C217.007,72.745,218.84,69.546,219.486,65.871z"/>
	<path fill="#A1C3FC" d="M214.965,152.864c-0.518-1.335-1.242-2.635-1.943-3.894c-0.214-0.383-0.427-0.771-0.638-1.16v26.249   C215.225,166.913,217.532,159.475,214.965,152.864z"/>
	<path fill="#A1C3FC" d="M226.891,38.939c0.876,2.679,2.081,5.376,3.247,7.983c0.204,0.457,0.408,0.916,0.611,1.374V16.756h-4.154   C224.556,23.99,224.56,31.82,226.891,38.939z"/>
	<path fill="#A1C3FC" d="M225.362,142.06c0.295,2.295,1.418,4.314,2.609,6.45c0.717,1.287,1.458,2.617,1.999,4.011   c0.339,0.873,0.592,1.758,0.78,2.651v-26.767c-0.411,0.684-0.831,1.362-1.251,2.033   C227.097,134.276,224.828,137.901,225.362,142.06z"/>
	<path fill="#A1C3FC" d="M230.01,76.6c-1.275,2.225-2.595,4.527-3.502,6.925c-2.077,5.486-2.026,11.761,0.137,17.213   c0.816,2.056,1.95,4.093,3.046,6.063c0.354,0.636,0.708,1.275,1.056,1.919V75.304C230.504,75.739,230.257,76.171,230.01,76.6z"/>
	<path fill="#FFFFFF" d="M212.384,17.054c0.027-0.1,0.057-0.199,0.085-0.298h-0.085V17.054z"/>
	<path fill="#FFFFFF" d="M215.37,130.44c2.013-3.216,4.094-6.54,4.464-10.285c0.479-4.824-1.935-9.161-4.269-13.354   c-1.096-1.969-2.23-4.007-3.046-6.063c-0.052-0.13-0.087-0.266-0.137-0.397v2.439c0.717,1.525,1.546,3.022,2.359,4.481   c2.369,4.254,4.606,8.271,4.156,12.801c-0.349,3.524-2.372,6.753-4.327,9.877c-0.755,1.207-1.517,2.425-2.189,3.67v2.111   C213.174,133.956,214.256,132.221,215.37,130.44z"/>
	<path fill="#FFFFFF" d="M215.883,76.6c1.896-3.308,3.857-6.73,4.53-10.566c1.168-6.643-1.664-12.982-4.403-19.112   c-1.165-2.609-2.372-5.306-3.247-7.983c-0.141-0.431-0.255-0.872-0.38-1.309v3.057c0.818,2.235,1.801,4.459,2.767,6.619   c2.805,6.276,5.453,12.204,4.336,18.563c-0.646,3.673-2.479,6.873-4.42,10.26c-0.928,1.62-1.874,3.281-2.682,5.001v2.388   C213.291,81.124,214.609,78.825,215.883,76.6z"/>
	<path fill="#FFFFFF" d="M217.504,175.561h-0.508"/>
	<path fill="#FFFFFF" d="M226.647,100.738c-2.164-5.453-2.215-11.727-0.137-17.213c0.907-2.398,2.226-4.699,3.502-6.925   c0.246-0.429,0.494-0.862,0.738-1.296v-1.948c-0.496,0.92-1.02,1.839-1.556,2.775c-1.293,2.259-2.632,4.592-3.565,7.059   c-2.159,5.704-2.106,12.226,0.143,17.896c0.839,2.114,1.987,4.178,3.099,6.174c0.656,1.177,1.298,2.336,1.879,3.492v-2.032   c-0.348-0.643-0.702-1.284-1.056-1.919C228.597,104.832,227.463,102.796,226.647,100.738z"/>
	<path fill="#FFFFFF" d="M225.995,39.233c0.892,2.725,2.107,5.445,3.282,8.075c0.503,1.126,0.999,2.239,1.472,3.346v-2.358   c-0.203-0.459-0.408-0.917-0.611-1.374c-1.165-2.609-2.372-5.306-3.247-7.983c-2.331-7.121-2.335-14.95-0.295-22.185h-0.977   C223.602,24.097,223.634,32.02,225.995,39.233z"/>
	<path fill="#FFFFFF" d="M212.384,175.176h0.565c3.048-7.553,5.676-15.487,2.893-22.653c-0.541-1.394-1.282-2.725-1.999-4.011   c-0.523-0.938-1.028-1.854-1.46-2.779v2.078c0.211,0.389,0.424,0.777,0.638,1.16c0.701,1.258,1.426,2.56,1.943,3.894   c2.567,6.611,0.261,14.05-2.581,21.196C212.384,174.059,212.384,175.176,212.384,175.176z"/>
	<path fill="#A1C3FC" d="M215.841,152.522c2.783,7.166,0.155,15.1-2.893,22.653h3.695c3.036-7.483,5.731-15.354,3.03-22.312   c-0.518-1.335-1.242-2.635-1.943-3.894c-1.181-2.12-2.404-4.315-2.721-6.79c-0.576-4.494,1.888-8.433,4.272-12.241   c1.955-3.123,3.977-6.354,4.327-9.877c0.449-4.53-1.788-8.548-4.156-12.801c-1.111-1.996-2.259-4.06-3.099-6.174   c-2.25-5.669-2.302-12.192-0.143-17.896c0.933-2.468,2.272-4.802,3.565-7.059c1.942-3.387,3.775-6.586,4.42-10.26   c1.118-6.36-1.531-12.288-4.336-18.563c-1.175-2.631-2.39-5.351-3.282-8.075c-2.36-7.214-2.393-15.136-0.375-22.478h-3.732   c-0.028,0.1-0.057,0.199-0.085,0.298V37.63c0.124,0.437,0.238,0.877,0.38,1.309c0.876,2.679,2.081,5.376,3.247,7.983   c2.739,6.129,5.571,12.468,4.403,19.112c-0.673,3.836-2.634,7.258-4.53,10.566c-1.275,2.224-2.593,4.524-3.5,6.921v16.82   c0.049,0.131,0.085,0.267,0.137,0.397c0.816,2.056,1.95,4.093,3.046,6.063c2.335,4.193,4.749,8.53,4.269,13.354   c-0.371,3.743-2.453,7.069-4.464,10.285c-1.115,1.781-2.197,3.517-2.988,5.282v10.011c0.432,0.926,0.937,1.841,1.46,2.779   C214.56,149.798,215.301,151.128,215.841,152.522z"/>
	<path fill="#FFFFFF" d="M219.775,76.132c-1.293,2.258-2.632,4.592-3.565,7.059c-2.159,5.704-2.106,12.226,0.143,17.896   c0.839,2.114,1.987,4.178,3.099,6.174c2.369,4.254,4.606,8.271,4.156,12.801c-0.349,3.524-2.372,6.753-4.327,9.877   c-2.384,3.809-4.849,7.747-4.272,12.241c0.317,2.475,1.54,4.669,2.721,6.79c0.701,1.258,1.426,2.56,1.943,3.894   c2.701,6.958,0.007,14.829-3.03,22.312h1.014c3.048-7.553,5.676-15.487,2.893-22.653c-0.541-1.394-1.282-2.725-1.999-4.011   c-1.19-2.136-2.314-4.156-2.609-6.45c-0.533-4.16,1.735-7.784,4.137-11.621c2.013-3.216,4.094-6.54,4.464-10.285   c0.479-4.824-1.935-9.161-4.269-13.354c-1.096-1.969-2.23-4.007-3.046-6.063c-2.164-5.453-2.215-11.727-0.137-17.213   c0.907-2.398,2.226-4.699,3.502-6.925c1.896-3.308,3.857-6.73,4.53-10.566c1.168-6.643-1.664-12.982-4.403-19.112   c-1.165-2.609-2.372-5.306-3.247-7.983c-2.331-7.121-2.335-14.95-0.295-22.185h-0.977c-2.017,7.342-1.985,15.265,0.375,22.478   c0.892,2.725,2.107,5.445,3.282,8.075c2.805,6.276,5.453,12.204,4.336,18.563C223.549,69.546,221.717,72.745,219.775,76.132z"/>
	<path fill="#A1C3FC" d="M220.592,76.6c-1.275,2.225-2.595,4.527-3.502,6.925c-2.077,5.486-2.026,11.761,0.137,17.213   c0.816,2.056,1.95,4.093,3.046,6.063c2.335,4.193,4.749,8.53,4.269,13.354c-0.371,3.743-2.453,7.069-4.464,10.285   c-2.402,3.837-4.67,7.462-4.137,11.621c0.295,2.295,1.418,4.314,2.609,6.45c0.717,1.287,1.458,2.617,1.999,4.011   c2.783,7.166,0.155,15.1-2.893,22.653h3.695c3.036-7.483,5.731-15.354,3.03-22.312c-0.518-1.335-1.242-2.635-1.943-3.894   c-1.181-2.12-2.404-4.315-2.721-6.79c-0.576-4.494,1.888-8.433,4.272-12.241c1.955-3.123,3.977-6.354,4.327-9.877   c0.449-4.53-1.788-8.548-4.156-12.801c-1.111-1.996-2.259-4.06-3.099-6.174c-2.25-5.669-2.302-12.192-0.143-17.896   c0.933-2.468,2.272-4.802,3.565-7.059c1.942-3.387,3.775-6.586,4.42-10.26c1.118-6.36-1.531-12.288-4.336-18.563   c-1.175-2.631-2.39-5.351-3.282-8.075c-2.36-7.214-2.393-15.136-0.375-22.478h-3.732c-2.04,7.235-2.036,15.063,0.295,22.185   c0.876,2.679,2.081,5.376,3.247,7.983c2.739,6.129,5.571,12.468,4.403,19.112C224.449,69.871,222.488,73.292,220.592,76.6z"/>
	<path fill="#FFFFFF" d="M224.484,76.132c-1.293,2.258-2.632,4.592-3.565,7.059c-2.159,5.704-2.106,12.226,0.143,17.896   c0.839,2.114,1.987,4.178,3.099,6.174c2.369,4.254,4.606,8.271,4.156,12.801c-0.349,3.524-2.372,6.753-4.327,9.877   c-2.384,3.809-4.849,7.747-4.272,12.241c0.317,2.475,1.54,4.669,2.721,6.79c0.701,1.258,1.426,2.56,1.943,3.894   c2.701,6.958,0.007,14.829-3.03,22.312h1.014c3.048-7.553,5.676-15.487,2.893-22.653c-0.541-1.394-1.282-2.725-1.999-4.011   c-1.19-2.136-2.314-4.156-2.609-6.45c-0.533-4.16,1.735-7.784,4.137-11.621c2.013-3.216,4.094-6.54,4.464-10.285   c0.479-4.824-1.935-9.161-4.269-13.354c-1.096-1.969-2.23-4.007-3.046-6.063c-2.164-5.453-2.215-11.727-0.137-17.213   c0.907-2.398,2.226-4.699,3.502-6.925c1.896-3.308,3.857-6.73,4.53-10.566c1.168-6.643-1.664-12.982-4.403-19.112   c-1.165-2.609-2.372-5.306-3.247-7.983c-2.331-7.121-2.335-14.95-0.295-22.185h-0.977c-2.017,7.342-1.985,15.265,0.375,22.478   c0.892,2.725,2.107,5.445,3.282,8.075c2.805,6.276,5.453,12.204,4.336,18.563C228.259,69.546,226.426,72.745,224.484,76.132z"/>
	<path fill="#A1C3FC" d="M225.301,76.6c-1.275,2.225-2.595,4.527-3.502,6.925c-2.077,5.486-2.026,11.761,0.137,17.213   c0.816,2.056,1.95,4.093,3.046,6.063c2.335,4.193,4.749,8.53,4.269,13.354c-0.371,3.743-2.453,7.069-4.464,10.285   c-2.402,3.837-4.67,7.462-4.137,11.621c0.295,2.295,1.418,4.314,2.609,6.45c0.717,1.287,1.458,2.617,1.999,4.011   c2.783,7.166,0.155,15.1-2.893,22.653h3.695c3.036-7.483,5.731-15.354,3.03-22.312c-0.518-1.335-1.242-2.635-1.943-3.894   c-1.181-2.12-2.404-4.315-2.721-6.79c-0.576-4.494,1.888-8.433,4.272-12.241c0.703-1.122,1.411-2.258,2.049-3.416v-15.771   c-0.581-1.157-1.223-2.316-1.879-3.492c-1.111-1.996-2.259-4.06-3.099-6.174c-2.25-5.669-2.302-12.192-0.143-17.896   c0.933-2.468,2.272-4.802,3.565-7.059c0.536-0.934,1.06-1.855,1.556-2.775V50.654c-0.472-1.108-0.969-2.221-1.472-3.346   c-1.175-2.631-2.39-5.351-3.282-8.075c-2.36-7.214-2.393-15.136-0.375-22.478h-3.732c-2.04,7.235-2.036,15.063,0.295,22.185   c0.876,2.679,2.081,5.376,3.247,7.983c2.739,6.129,5.571,12.468,4.403,19.112C229.158,69.871,227.197,73.292,225.301,76.6z"/>
	<path fill="#FFFFFF" d="M227.148,148.969c0.701,1.258,1.426,2.56,1.943,3.894c2.683,6.911-0.103,14.868-3.118,22.312h1.103   c1.56-3.866,3.003-7.83,3.673-11.741v-8.26c-0.187-0.894-0.441-1.778-0.78-2.651c-0.541-1.394-1.282-2.725-1.999-4.011   c-1.19-2.136-2.314-4.156-2.609-6.45c-0.533-4.16,1.735-7.784,4.137-11.621c0.42-0.672,0.841-1.35,1.251-2.033v-1.883   c-0.639,1.159-1.347,2.294-2.049,3.416c-2.384,3.809-4.849,7.747-4.272,12.241C224.746,144.655,225.967,146.849,227.148,148.969z"/>
	<path fill="#A1C3FC" d="M230.75,175.176v-11.741c-0.671,3.912-2.113,7.875-3.673,11.741H230.75z"/>
</g>
<polygon fill="#1D72D8" points="231.906,117.156 226.615,111.602 232.165,106.307 237.456,111.861 "/>
<rect x="191.784" y="166.324" transform="matrix(0.9732 0.23 -0.23 0.9732 44.3711 -40.4229)" fill="#1D72D8" width="7.668" height="7.673"/>
<rect x="221.551" y="116.188" transform="matrix(-0.2057 0.9786 -0.9786 -0.2057 387.5283 -76.0356)" fill="#E94A47" width="6.143" height="6.139"/>

</g>
</g>

<!-- ITEM 1 -->
<g transform="translate(415.0 289.0) scale(4.96 4.963855421686747) rotate(11.008364707815744 100.00000000000001 41.5)">
<g transform="translate(-0.0 -0.0)">

<path fill="#151A4F" d="M85.859,83c18.203-6.987,25.627-18.26,38.407-21.96c0,0-10.404-29.674-12.402-44.119  c-6.459-2.96-16.012-0.914-22.985,0.381c-11.149,2.072-22.716,1.81-33.763-0.761c-2.814,15.076-7.864,47.892-7.864,47.892  C59.601,66.388,70.581,76.902,85.859,83z"/>
<polygon fill="#23286B" points="0,32.897 87.452,50.32 164.821,18.642 70.324,0 "/>
<polygon fill="#428DFC" points="71.423,23.005 84.249,25.561 95.597,20.915 81.737,18.18 "/>
<g>
	<path fill="#428DFC" d="M184.905,43.605c-7.244,0-14.54-2.233-20.373-6.435c-2.338-1.684-4.471-3.674-6.535-5.597   c-1.612-1.503-3.279-3.056-5.024-4.445c-9.063-7.212-21.749-11.053-35.785-10.828c-13.014,0.215-25.698,3.66-37.466,7.352   c-0.228,0.071-0.467-0.055-0.538-0.28c-0.071-0.226,0.054-0.466,0.281-0.537c11.83-3.711,24.586-7.175,37.71-7.391   c14.201-0.228,27.115,3.678,36.333,11.014c1.771,1.41,3.451,2.975,5.075,4.489c2.044,1.905,4.159,3.876,6.453,5.528   c8.112,5.843,19.131,7.783,28.756,5.065c2.767-0.781,4.389-1.857,5.106-3.388c0.448-0.957,0.265-2.318-0.438-3.238   c-0.293-0.383-0.921-1-1.86-0.842c-0.229,0.038-0.455-0.117-0.495-0.349c-0.039-0.234,0.118-0.455,0.351-0.494   c1.011-0.177,1.988,0.253,2.688,1.168c0.899,1.178,1.118,2.871,0.532,4.121c-1.091,2.327-3.748,3.311-5.651,3.849   C191.075,43.199,187.994,43.605,184.905,43.605z"/>
</g>
<g>
	<path fill="#428DFC" d="M183.242,38.078c-4.44,0-9.052-0.845-12.778-1.644c-5.252-1.125-10.104-3.426-14.832-7.035   c-0.189-0.143-0.224-0.412-0.081-0.601c0.145-0.19,0.414-0.224,0.602-0.08c4.625,3.53,9.365,5.78,14.49,6.878   c4.569,0.978,10.48,2.028,15.695,1.467c4.392-0.474,6.21-3.291,6.432-5.56c0.159-1.614-0.473-2.927-1.57-3.268   c-0.227-0.07-0.352-0.311-0.282-0.536c0.071-0.227,0.309-0.352,0.538-0.281c1.496,0.466,2.368,2.142,2.168,4.171   c-0.273,2.792-2.604,5.832-7.195,6.327C185.388,38.029,184.32,38.078,183.242,38.078z"/>
</g>
<g>
	<path fill="#428DFC" d="M183.86,50.412c-5.681,0-11.375-1.639-16.14-4.72c-6.535-4.226-10.723-9.647-12.448-16.11   c-0.061-0.229,0.076-0.463,0.304-0.524c0.232-0.06,0.464,0.076,0.525,0.303c1.668,6.252,5.734,11.505,12.084,15.612   c5.884,3.803,13.227,5.343,20.145,4.226c0.228-0.036,0.455,0.12,0.492,0.354c0.039,0.234-0.121,0.453-0.355,0.492   C186.947,50.291,185.403,50.412,183.86,50.412z"/>
</g>

</g>
</g>

<!-- ITEM 2 -->
<g transform="translate(1260.0 679.0) scale(0.46 0.46) rotate(331.7054574060013 50.0 50.0)">
<g transform="translate(-0.0 -0.0)">

<path fill="#E94A47" d="M98.663,98.531c-33.052,1.963-65.546,1.955-97.487,0c-1.46-34.57-1.676-67.372,0-97.487  c32.497-1.392,64.992-1.392,97.487,0C100.512,32.524,100.381,65.091,98.663,98.531z"/>

</g>
</g>

<!-- ITEM 3 -->
<g transform="translate(209.0 1078.0) scale(0.38 0.38) rotate(338.00693710021284 50.0 50.0)">
<g transform="translate(-0.0 -0.0)">

<path fill="#E94A47" d="M98.663,98.531c-33.052,1.963-65.546,1.955-97.487,0c-1.46-34.57-1.676-67.372,0-97.487  c32.497-1.392,64.992-1.392,97.487,0C100.512,32.524,100.381,65.091,98.663,98.531z"/>

</g>
</g>

<!-- ITEM 4 -->
<g transform="translate(246.0 746.0) scale(0.25 0.25) rotate(334.4253732909223 50.0 50.0)">
<g transform="translate(-0.0 -0.0)">

<path fill="#23286B" d="M98.663,98.531c-33.052,1.963-65.546,1.955-97.487,0c-1.46-34.57-1.676-67.372,0-97.487  c32.497-1.392,64.992-1.392,97.487,0C100.512,32.524,100.381,65.091,98.663,98.531z"/>

</g>
</g>

<!-- ITEM 5 -->
<g transform="translate(1315.0 880.0) scale(1.7854244440837528 1.7854244440837528) rotate(0.0 6.161 6.161)">
<g transform="translate(1373.77 -605.694)">

<circle fill="#D9E021" cx="-1367.609" cy="611.855" r="6.161"/>

</g>
</g>

              </svg>